<svg width="98" height="9" viewBox="0 0 98 9" fill="none" xmlns="http://www.w3.org/2000/svg">
<path d="M0.599976 0.600006H7.31998V7.32001H2.26798V9.00001H0.599976V0.600006ZM5.63998 5.65201V2.28001H2.26798V5.65201H5.63998Z" fill="white"/>
<path d="M15.1481 2.28001H10.0961V3.97201H14.2961V5.65201H10.0961V7.32001H15.1481V9.00001H8.4281V0.600006H15.1481V2.28001Z" fill="white"/>
<path d="M16.0687 0.600006H22.7887V5.65201H19.3327L22.7887 7.30801V9.00001H21.1087V8.19601L17.7367 6.57601V9.00001H16.0687V0.600006ZM21.1087 3.97201V2.29201H17.7367V3.97201H21.1087Z" fill="white"/>
<path d="M30.4837 2.28001H25.4317V3.14401L30.4837 5.56801V9.00001H23.7637V7.32001H28.8037V6.46801L23.7637 4.03201V0.600006H30.4837V2.28001Z" fill="white"/>
<path d="M31.5023 0.600006H38.2223V9.00001H31.5023V0.600006ZM36.5423 7.32001V2.28001H33.1703V7.32001H36.5423Z" fill="white"/>
<path d="M44.4522 0.600006H46.1442V9.00001H44.4522V6.46801L41.0922 4.84801V9.00001H39.4242V0.600006H41.0922V3.14401L44.4522 4.76401V0.600006Z" fill="white"/>
<path d="M47.3461 0.600006H54.0661V9.00001H52.3861V7.32001H49.0141V9.00001H47.3461V0.600006ZM52.3861 5.65201V2.28001H49.0141V5.65201H52.3861Z" fill="white"/>
<path d="M60.3079 5.65201H61.9879V9.00001H55.2679V0.600006H56.9479V7.32001H60.3079V5.65201Z" fill="white"/>
<path d="M72.2259 5.65201H73.9059V9.00001H67.1859V0.600006H68.8659V7.32001H72.2259V5.65201Z" fill="white"/>
<path d="M74.6976 0.600006H81.4176V9.00001H74.6976V0.600006ZM79.7376 7.32001V2.28001H76.3656V7.32001H79.7376Z" fill="white"/>
<path d="M84.2995 7.32001H87.6595V5.65201H85.9795V3.97201H89.3395V9.00001H82.6195V0.600006H89.3395V2.28001H84.2995V7.32001Z" fill="white"/>
<path d="M90.4828 0.600006H97.2028V9.00001H90.4828V0.600006ZM95.5228 7.32001V2.28001H92.1508V7.32001H95.5228Z" fill="white"/>
</svg>
